# xmcd
#
# Track frame offsets:
#	150
#	20405
#	37645
#	49763
#	70256
#	87355
#	101410
#	118812
#	133450
#	158847
#	174249
#	194776
#	213774
#	237891
#
# Disc length: 3388 seconds
#
# Revision: 1
# Processed by: cddbd v1.5.2PL0 Copyright (c) Steve Scherf et al.
# Submitted via: audiograbber 1.83.01
#
DISCID=bc0d3a0e
DTITLE=Blake Andison - Will Yesterday Fade Away
DYEAR=2007
DGENRE=Blues - Classic Rock
TTITLE0=Forty Days
TTITLE1=Blame It On Me
TTITLE2=Love You For A While
TTITLE3=You're Not Even Listening
TTITLE4=Memories
TTITLE5=Head Over Heels
TTITLE6=Stranger In Your Eyes
TTITLE7=Time To Rise Up
TTITLE8=Out By The Water
TTITLE9=What Is Left Within
TTITLE10=Ragin' Rapid River
TTITLE11=Picking Up The Pieces
TTITLE12=Will Yesterday Fade Away
TTITLE13=I'm Golden For Now
EXTD=
EXTT0=
EXTT1=
EXTT2=
EXTT3=
EXTT4=
EXTT5=
EXTT6=
EXTT7=
EXTT8=
EXTT9=
EXTT10=
EXTT11=
EXTT12=
EXTT13=
PLAYORDER=
